<?xml version="1.0" standalone="no"?>
<!DOCTYPE svg PUBLIC "-//W3C//DTD SVG 20010904//EN"
 "http://www.w3.org/TR/2001/REC-SVG-20010904/DTD/svg10.dtd">
<svg version="1.0" xmlns="http://www.w3.org/2000/svg"
 width="1024.000000pt" height="1024.000000pt" viewBox="0 0 1024.000000 1024.000000"
 preserveAspectRatio="xMidYMid meet">

<g transform="translate(0.000000,1024.000000) scale(0.100000,-0.100000)"
fill="#000000" stroke="none">
<path d="M5076 8465 c-8 -8 -20 -41 -26 -73 -6 -31 -24 -113 -40 -182 -16 -69
-41 -179 -55 -245 -14 -66 -35 -158 -46 -205 -11 -47 -29 -123 -40 -170 -33
-140 -307 -1246 -339 -1368 -17 -62 -30 -119 -30 -127 0 -32 16 -41 -430 235
-157 97 -361 227 -454 288 -92 62 -176 112 -185 112 -23 0 -61 -41 -61 -67 0
-11 11 -35 23 -54 13 -19 69 -99 124 -179 128 -186 533 -807 533 -818 0 -19
-1297 -353 -1835 -473 -254 -57 -474 -108 -513 -121 -38 -12 -58 -48 -42 -78
13 -24 14 -24 420 -115 184 -41 432 -97 550 -125 118 -28 276 -64 350 -81 128
-28 331 -75 838 -194 123 -29 225 -55 228 -58 3 -3 -7 -25 -24 -49 -16 -24
-91 -142 -167 -263 -144 -230 -337 -522 -430 -652 -30 -42 -55 -87 -55 -99 0
-32 36 -67 63 -62 12 2 163 98 335 212 451 300 705 457 713 443 29 -53 370
-1406 484 -1922 47 -214 93 -400 100 -412 22 -33 53 -38 84 -16 32 25 23 -7
126 443 102 440 463 1902 473 1912 4 4 66 -29 137 -73 148 -92 740 -482 829
-546 63 -46 89 -52 124 -27 41 29 29 58 -108 262 -120 178 -525 817 -536 847
-6 15 0 17 121 44 50 11 214 50 365 86 297 71 1042 241 1310 298 91 20 253 54
360 77 109 23 203 49 213 57 24 22 21 60 -5 77 -23 14 -245 71 -553 141 -254
57 -811 196 -1315 327 -256 66 -475 123 -487 126 -13 2 -23 6 -23 8 0 15 483
753 649 993 17 24 31 54 31 66 0 25 -39 65 -62 65 -9 0 -117 -67 -240 -149
-123 -81 -340 -221 -483 -310 -143 -90 -273 -172 -288 -183 -16 -11 -30 -18
-31 -16 -6 6 -117 428 -212 803 -120 474 -181 727 -284 1185 -80 356 -89 392
-101 406 -15 18 -64 18 -83 -1z m72 -2840 c243 -39 377 -117 497 -289 16 -21
39 -27 600 -132 384 -71 881 -166 1069 -203 l89 -18 -214 -5 c-118 -3 -494 -3
-835 -2 l-622 4 -6 -48 c-27 -191 -156 -377 -317 -455 -79 -39 -210 -77 -266
-77 l-34 0 3 -959 c2 -528 2 -959 1 -958 -3 4 -164 631 -289 1127 -149 592
-222 871 -234 889 -4 7 -83 30 -176 51 -93 22 -245 57 -339 78 -562 131 -694
161 -725 167 -58 11 -738 166 -815 185 -16 5 419 8 968 9 l997 1 0 48 c0 102
56 252 127 339 l42 52 -33 60 -34 59 38 139 c21 76 68 253 105 393 36 140 79
302 95 360 15 58 47 179 70 270 24 91 74 282 112 425 37 143 72 278 76 300 4
22 8 -375 10 -882 l2 -922 38 -6z"/>
<path d="M5005 5446 c-88 -22 -145 -54 -205 -115 -194 -198 -176 -509 39 -684
72 -58 155 -82 281 -81 92 0 114 4 174 28 77 33 170 112 209 179 113 193 81
418 -82 570 -108 102 -265 140 -416 103z m210 -227 c54 -25 111 -89 125 -138
52 -188 -113 -346 -303 -289 -69 21 -136 105 -152 190 -4 23 -1 57 9 92 40
135 194 205 321 145z"/>
<path d="M4600 8074 c-568 -120 -1061 -359 -1472 -714 -404 -348 -718 -797
-902 -1292 -75 -202 -153 -507 -168 -661 -4 -37 -4 -38 26 -31 52 11 307 82
312 86 2 3 11 42 19 89 55 289 187 630 346 889 178 289 402 543 674 761 305
245 750 461 1122 544 133 30 133 30 133 53 0 15 52 238 66 285 7 23 -12 22
-156 -9z"/>
<path d="M5480 8094 c1 -5 18 -79 39 -164 35 -138 41 -156 62 -162 13 -4 83
-22 154 -39 331 -79 683 -245 968 -456 320 -237 587 -526 774 -838 164 -273
280 -568 334 -854 23 -118 24 -121 54 -130 123 -37 307 -83 311 -78 8 8 -14
146 -46 288 -199 880 -768 1645 -1540 2070 -208 115 -433 208 -673 278 -199
58 -437 105 -437 85z"/>
<path d="M4023 7256 c-32 -15 -63 -60 -63 -93 0 -24 138 -251 160 -263 10 -6
33 -10 51 -10 41 0 99 58 99 99 0 28 -104 209 -143 248 -29 29 -65 36 -104 19z"/>
<path d="M6109 7233 c-14 -16 -35 -44 -46 -63 -11 -19 -37 -62 -57 -94 -46
-75 -47 -116 -7 -157 41 -41 87 -40 128 4 43 45 143 216 143 243 0 13 -14 39
-31 59 -41 46 -92 49 -130 8z"/>
<path d="M2815 5975 c-34 -33 -36 -112 -2 -142 33 -32 270 -117 301 -109 66
16 90 109 42 157 -28 28 -249 119 -289 119 -16 0 -38 -10 -52 -25z"/>
<path d="M7240 5956 c-186 -69 -190 -72 -190 -147 0 -57 39 -93 95 -86 57 6
255 86 282 113 35 35 32 97 -6 135 -16 16 -38 29 -48 29 -10 -1 -70 -20 -133
-44z"/>
<path d="M2055 4533 c94 -573 310 -1070 661 -1523 189 -245 471 -497 764 -685
142 -91 456 -244 615 -299 296 -104 665 -184 665 -144 0 19 -72 292 -79 301
-4 4 -77 25 -162 46 -401 102 -709 248 -1044 496 -312 230 -564 515 -769 871
-110 191 -233 515 -285 750 l-28 129 -39 13 c-44 15 -288 82 -298 82 -4 0 -4
-17 -1 -37z"/>
<path d="M8009 4526 c-85 -24 -161 -46 -167 -50 -7 -4 -12 -16 -12 -27 0 -36
-31 -172 -66 -291 -90 -310 -264 -652 -462 -912 -160 -210 -447 -478 -677
-630 -276 -184 -626 -332 -950 -403 l-122 -26 -37 -148 c-20 -81 -36 -153 -36
-161 0 -13 12 -13 93 -2 127 18 299 57 437 100 724 226 1342 704 1721 1330 91
149 224 424 278 572 73 199 171 585 171 672 0 24 16 27 -171 -24z"/>
<path d="M7098 4204 c-47 -25 -62 -82 -37 -138 13 -27 29 -36 164 -90 131 -53
157 -55 195 -18 55 56 34 134 -47 172 -51 24 -229 90 -241 90 -4 -1 -19 -7
-34 -16z"/>
<path d="M2960 4169 c-58 -21 -115 -44 -126 -50 -28 -14 -44 -50 -44 -99 0
-31 6 -43 31 -65 38 -31 46 -30 198 27 134 50 148 59 161 107 11 44 6 66 -23
99 -29 32 -73 28 -197 -19z"/>
<path d="M4133 3060 c-27 -11 -173 -231 -173 -260 0 -29 27 -77 49 -90 37 -19
85 -12 113 18 45 48 148 218 148 243 0 34 -27 69 -66 85 -38 16 -41 16 -71 4z"/>
<path d="M6023 3050 c-69 -42 -70 -87 -1 -200 86 -143 93 -150 141 -150 49 0
81 19 102 60 18 36 17 40 -62 173 -81 136 -115 157 -180 117z"/>
</g>
</svg>
